<svg width="64" height="64" viewBox="0 0 64 64" fill="none" xmlns="http://www.w3.org/2000/svg">
<circle cx="32" cy="32" r="30" fill="#2E86DE"/>
<path d="M32 5.33334C17.272 5.33334 5.33337 17.272 5.33337 32C5.33337 46.728 17.272 58.6667 32 58.6667C46.728 58.6667 58.6667 46.728 58.6667 32C58.6667 17.272 46.728 5.33334 32 5.33334Z" stroke="#F7F7F7" stroke-width="4" stroke-linecap="round" stroke-linejoin="round"/>
<path d="M11.3893 48.9227C11.3893 48.9227 17.3333 41.3333 31.9999 41.3333C46.6666 41.3333 52.6133 48.9227 52.6133 48.9227M31.9999 32C34.1217 32 36.1565 31.1571 37.6568 29.6569C39.1571 28.1566 39.9999 26.1217 39.9999 24C39.9999 21.8783 39.1571 19.8434 37.6568 18.3431C36.1565 16.8429 34.1217 16 31.9999 16C29.8782 16 27.8434 16.8429 26.3431 18.3431C24.8428 19.8434 23.9999 21.8783 23.9999 24C23.9999 26.1217 24.8428 28.1566 26.3431 29.6569C27.8434 31.1571 29.8782 32 31.9999 32Z" stroke="#F7F7F7" stroke-width="4" stroke-linecap="round" stroke-linejoin="round"/>
</svg>
