<svg width="50" height="50" viewBox="0 0 50 50" fill="none" xmlns="http://www.w3.org/2000/svg">
<g clip-path="url(#clip0_1_7)">
<path d="M49.6448 22.1373L42.1653 18.6537C42.084 18.6159 41.9954 18.5963 41.9057 18.5963H38.3197C38.23 18.5963 38.1414 18.6158 38.0601 18.6537L35.1433 20.012V18.6987H36.1679C36.4381 18.6987 36.6766 18.5223 36.7557 18.264C36.8348 18.0057 36.7361 17.726 36.5123 17.5746L34.375 16.1297V11.1168C34.375 10.7773 34.0997 10.502 33.7603 10.502H30.8914C30.552 10.502 30.2767 10.7773 30.2767 11.1168V13.359L29.2377 12.6566C29.1361 12.5879 29.0161 12.5512 28.8935 12.5512H21.1066C20.9839 12.5512 20.864 12.5879 20.7623 12.6566L19.7234 13.359V11.1168C19.7234 10.7773 19.4481 10.502 19.1086 10.502H16.2398C15.9004 10.502 15.6251 10.7773 15.6251 11.1168V16.1298L13.4878 17.5747C13.2639 17.7261 13.1651 18.0058 13.2443 18.2641C13.3234 18.5224 13.5619 18.6988 13.8321 18.6988H14.8567V20.012L11.94 18.6537C11.8588 18.6159 11.7701 18.5963 11.6805 18.5963H8.09423C8.00457 18.5963 7.91595 18.6158 7.8347 18.6537L0.355204 22.1373C0.0938317 22.2591 -0.0477663 22.546 0.0145286 22.8275C0.076926 23.1091 0.326413 23.3094 0.614732 23.3094H1.53686V38.8831C1.53686 39.2225 1.81217 39.4979 2.15161 39.4979H47.8482C48.1877 39.4979 48.463 39.2225 48.463 38.8831V23.3094H49.3851C49.6734 23.3094 49.923 23.1091 49.9853 22.8275C50.0477 22.546 49.906 22.2591 49.6448 22.1373ZM38.4557 19.8258H41.7696L46.6092 22.0799H35.1433V21.3683L38.4557 19.8258ZM44.5183 27.1003H37.5511V25.5635H44.5183V27.1003ZM47.2335 28.3298V29.4569H35.1433V28.3298H47.2335ZM31.5061 11.7315H33.1454V15.2985L31.5061 14.1902V11.7315ZM21.2948 13.7807H28.705L34.161 17.4692H15.8389L21.2948 13.7807ZM16.8545 11.7315H18.4938V14.1902L16.8545 15.2985V11.7315ZM2.76637 28.3298H14.8565V29.4569H2.76637V28.3298ZM12.295 27.1003H5.32784V25.5635H12.295V27.1003ZM8.23039 19.8258H11.5442L14.8565 21.3684V22.08H3.39075L8.23039 19.8258ZM14.8565 23.3094V27.1003H13.5245V24.9487C13.5245 24.6093 13.2492 24.334 12.9098 24.334H4.71308C4.37364 24.334 4.09833 24.6093 4.09833 24.9487V27.1003H2.76637V23.3094H14.8565ZM2.76637 30.6864H14.8565V38.2684H2.76637V30.6864ZM20.4917 38.2684H17.9303V32.8893C17.9303 32.183 18.5048 31.6085 19.211 31.6085C19.9173 31.6085 20.4917 32.1831 20.4917 32.8893V38.2684ZM26.2807 38.2684H23.7192V32.8893C23.7192 32.183 24.2937 31.6085 24.9999 31.6085C25.7062 31.6085 26.2807 32.183 26.2807 32.8893V38.2684ZM32.0696 38.2684H29.5081V32.8893C29.5081 32.183 30.0826 31.6085 30.7889 31.6085C31.4951 31.6085 32.0696 32.1831 32.0696 32.8893V38.2684ZM33.2991 38.2684V32.8893C33.2991 31.505 32.173 30.379 30.7889 30.379C29.4047 30.379 28.2786 31.5051 28.2786 32.8893V38.2684H27.5102V32.8893C27.5102 31.505 26.384 30.379 24.9999 30.379C23.6158 30.379 22.4897 31.505 22.4897 32.8893V38.2684H21.7212V32.8893C21.7212 31.505 20.5951 30.379 19.211 30.379C17.8269 30.379 16.7008 31.5051 16.7008 32.8893V38.2684H16.086V18.6987H33.9138V38.2684H33.2991ZM35.1433 38.2684V30.6864H47.2335V38.2684H35.1433ZM47.2335 27.1003H45.7478V24.9487C45.7478 24.6093 45.4725 24.334 45.1331 24.334H36.9364C36.5969 24.334 36.3216 24.6093 36.3216 24.9487V27.1003H35.1433V23.3094H47.2335V27.1003Z" fill="#2E86DE"/>
<path d="M19.211 20.0307C17.8269 20.0307 16.7007 21.1567 16.7007 22.5409V26.9979C16.7007 27.3373 16.9761 27.6126 17.3155 27.6126H21.1065C21.4459 27.6126 21.7212 27.3373 21.7212 26.9979V22.5409C21.7212 21.1568 20.5952 20.0307 19.211 20.0307ZM20.4917 26.3831H17.9303V22.5409C17.9303 21.8347 18.5047 21.2602 19.211 21.2602C19.9172 21.2602 20.4917 21.8348 20.4917 22.5409V26.3831Z" fill="#2E86DE"/>
<path d="M24.9999 20.0307C23.6158 20.0307 22.4897 21.1567 22.4897 22.5409V26.9979C22.4897 27.3373 22.765 27.6126 23.1044 27.6126H26.8954C27.2349 27.6126 27.5102 27.3373 27.5102 26.9979V22.5409C27.5102 21.1568 26.3841 20.0307 24.9999 20.0307ZM26.2807 26.3831H23.7192V22.5409C23.7192 21.8347 24.2937 21.2602 24.9999 21.2602C25.7062 21.2602 26.2807 21.8347 26.2807 22.5409V26.3831Z" fill="#2E86DE"/>
<path d="M30.7889 20.0307C29.4048 20.0307 28.2786 21.1567 28.2786 22.5409V26.9979C28.2786 27.3373 28.5539 27.6126 28.8934 27.6126H32.6844C33.0238 27.6126 33.2991 27.3373 33.2991 26.9979V22.5409C33.2991 21.1568 32.1731 20.0307 30.7889 20.0307ZM32.0696 26.3831H29.5081V22.5409C29.5081 21.8347 30.0826 21.2602 30.7889 21.2602C31.4951 21.2602 32.0696 21.8348 32.0696 22.5409V26.3831Z" fill="#2E86DE"/>
<path d="M13.6782 31.5061H9.68232C9.34287 31.5061 9.06757 31.7814 9.06757 32.1208V36.1167C9.06757 36.4562 9.34287 36.7315 9.68232 36.7315H13.6782C14.0177 36.7315 14.293 36.4562 14.293 36.1167V32.1208C14.293 31.7814 14.0178 31.5061 13.6782 31.5061ZM13.0635 35.502H10.2971V32.7356H13.0635V35.502Z" fill="#2E86DE"/>
<path d="M7.94054 31.5061H3.94465C3.6052 31.5061 3.3299 31.7814 3.3299 32.1208V36.1167C3.3299 36.4562 3.6052 36.7315 3.94465 36.7315H7.94054C8.27999 36.7315 8.55529 36.4562 8.55529 36.1167V32.1208C8.55529 31.7814 8.28009 31.5061 7.94054 31.5061ZM7.32579 35.502H4.5594V32.7356H7.32579V35.502Z" fill="#2E86DE"/>
<path d="M45.9015 31.5061H41.9056C41.5662 31.5061 41.2909 31.7814 41.2909 32.1208V36.1167C41.2909 36.4562 41.5662 36.7315 41.9056 36.7315H45.9015C46.241 36.7315 46.5163 36.4562 46.5163 36.1167V32.1208C46.5163 31.7814 46.2411 31.5061 45.9015 31.5061ZM45.2868 35.502H42.5204V32.7356H45.2868V35.502Z" fill="#2E86DE"/>
<path d="M40.1638 31.5061H36.1679C35.8285 31.5061 35.5532 31.7814 35.5532 32.1208V36.1167C35.5532 36.4562 35.8285 36.7315 36.1679 36.7315H40.1638C40.5033 36.7315 40.7786 36.4562 40.7786 36.1167V32.1208C40.7786 31.7814 40.5034 31.5061 40.1638 31.5061ZM39.5491 35.502H36.7827V32.7356H39.5491V35.502Z" fill="#2E86DE"/>
</g>
<defs>
<clipPath id="clip0_1_7">
<rect width="50" height="50" fill="white"/>
</clipPath>
</defs>
</svg>
